<svg width="62" height="62" viewBox="0 0 62 62" fill="none" xmlns="http://www.w3.org/2000/svg">
<mask id="path-1-inside-1_1_309" fill="white">
<path d="M54.6211 14.7043C62.9248 21.9882 63.7514 34.6245 56.4675 42.9282L46.1073 54.7388C38.8233 63.0425 26.1871 63.8691 17.8834 56.5851L7.03562 47.0695C-1.26807 39.7856 -2.09473 27.1493 5.18923 18.8456L15.5494 7.03504C22.8334 -1.26865 35.4696 -2.09529 43.7733 5.18867L54.6211 14.7043Z"/>
</mask>
<path d="M61.2155 7.1867C73.671 18.1126 74.911 37.0671 63.985 49.5226L60.2193 53.8156C49.2933 66.2711 30.3389 67.5111 17.8834 56.5851C22.0352 60.2271 31.3058 56.4481 38.5897 48.1444L48.9499 36.3338C52.5919 32.182 52.1785 25.8638 48.0267 22.2219L61.2155 7.1867ZM-7.99955 33.8807L28.7382 -8.00011L-7.99955 33.8807ZM15.5494 7.03505C26.4753 -5.42049 45.4298 -6.66046 57.8853 4.26549L61.2155 7.1867C73.671 18.1126 74.911 37.0671 63.985 49.5226L48.9499 36.3338C52.5919 32.182 52.1785 25.8638 48.0267 22.2219L37.1789 12.7063C28.8753 5.42229 19.1914 2.8832 15.5494 7.03505ZM32.9185 69.7739L-7.99955 33.8807L32.9185 69.7739Z" fill="#FFD054" mask="url(#path-1-inside-1_1_309)"/>
</svg>
